<svg xmlns="http://www.w3.org/2000/svg" viewBox="0 0 24 24">
	<g fill="none" stroke="currentColor" stroke-width="1.5">
		<path stroke-linecap="round" d="M12 5.793a28 28 0 0 1 3.342 2.865A28 28 0 0 1 18.207 12m0 0c2.584-3.57 3.554-6.947 2.147-8.354S15.57 3.209 12 5.793a28 28 0 0 0-3.342 2.865A28 28 0 0 0 5.793 12m12.414 0c2.584 3.57 3.554 6.947 2.147 8.354c-1.043 1.043-3.17.78-5.654-.48M18.207 12a28 28 0 0 1-2.865 3.342A28 28 0 0 1 12 18.207m0 0a28 28 0 0 1-3.342-2.865A28 28 0 0 1 5.793 12M12 18.207c-3.57 2.584-6.947 3.554-8.354 2.147S3.209 15.57 5.793 12m0 0C3.21 8.43 2.24 5.053 3.646 3.646c1.043-1.043 3.17-.78 5.654.48" />
		<circle cx="12" cy="12" r="2" />
	</g>
</svg>
